# xmcd
#
# Track frame offsets: 
#        150
#        17052
#        33267
#        49424
#        66558
#        86776
#        102350
#        121004
#        139991
#        156334
#        172321
#
# Disc length: 2578 seconds
#
# Revision: 0
# Processed by: cddbd v1.5.2PL0 Copyright (c) Steve Scherf et al.
# Submitted via: ExactAudioCopy v1.0b6
#
DISCID=a00a100b
DTITLE=Kaylens Rain - Found
DYEAR=2012
DGENRE=Country
TTITLE0=Outta Here
TTITLE1=Catch Me
TTITLE2=She's A Windflower
TTITLE3=Is That All There Is
TTITLE4=The Foolish Kind
TTITLE5=Don't Even Go There
TTITLE6=Waiting On A Bus
TTITLE7=Don't Come Over ('Til I'm Over You)
TTITLE8=Used To Be Somebody
TTITLE9=I'm Not Gonna Follow You Home
TTITLE10=Found
EXTD=
EXTT0=
EXTT1=
EXTT2=
EXTT3=
EXTT4=
EXTT5=
EXTT6=
EXTT7=
EXTT8=
EXTT9=
EXTT10=
PLAYORDER=
